<?xml version="1.0" encoding="UTF-8" standalone="no"?>
<!-- Created with Inkscape (http://www.inkscape.org/) -->

<svg
   width="100mm"
   height="100mm"
   viewBox="0 0 100 100"
   version="1.1"
   id="svg294"
   inkscape:version="1.2.1 (9c6d41e410, 2022-07-14)"
   sodipodi:docname="1.svg"
   xmlns:inkscape="http://www.inkscape.org/namespaces/inkscape"
   xmlns:sodipodi="http://sodipodi.sourceforge.net/DTD/sodipodi-0.dtd"
   xmlns="http://www.w3.org/2000/svg"
   xmlns:svg="http://www.w3.org/2000/svg">
  <sodipodi:namedview
     id="namedview296"
     pagecolor="#ffffff"
     bordercolor="#000000"
     borderopacity="0.25"
     inkscape:showpageshadow="2"
     inkscape:pageopacity="0.0"
     inkscape:pagecheckerboard="0"
     inkscape:deskcolor="#d1d1d1"
     inkscape:document-units="mm"
     showgrid="false"
     inkscape:zoom="0.5946522"
     inkscape:cx="-267.38319"
     inkscape:cy="282.51808"
     inkscape:window-width="1280"
     inkscape:window-height="961"
     inkscape:window-x="-8"
     inkscape:window-y="-8"
     inkscape:window-maximized="1"
     inkscape:current-layer="layer1" />
  <defs
     id="defs291" />
  <g
     inkscape:label="Слой 1"
     inkscape:groupmode="layer"
     id="layer1">
    <path
       d="m 47.348636,73.030215 c -7.698366,-1.2064 -13.940611,-6.84236 -16.038347,-14.48057 -0.598078,-2.1777 -0.621647,-7.12285 -0.04412,-9.25631 0.680574,-2.514154 1.405522,-4.233734 2.460574,-5.836527 0.988677,-1.501933 0.99459,-1.525349 0.542068,-2.146564 -0.354928,-0.48723 -0.699688,-0.634153 -1.537541,-0.655161 -1.421834,-0.03567 -2.280796,-0.9593 -2.280796,-2.45245 0,-0.902467 0.148743,-1.166601 1.2065,-2.142463 1.721604,-1.588347 2.648873,-1.988106 3.760589,-1.621182 1.135428,0.37473 1.747443,1.488123 1.537989,2.797995 -0.183836,1.149642 0.362111,1.817291 1.072713,1.311858 2.724732,-1.93802 7.116141,-3.860509 8.818321,-3.860509 0.89995,0 0.8303,-1.092571 -0.14011,-2.197815 -0.65746,-0.748797 -0.762,-1.067998 -0.762,-2.326518 0,-2.483485 1.12096,-3.349675 4.33495,-3.349675 2.10473,0 3.24018,0.441478 3.86771,1.503807 0.83564,1.414626 0.39925,3.799535 -0.85615,4.678878 -0.33459,0.234315 -0.49921,0.582877 -0.44594,0.944113 0.0712,0.483182 0.36641,0.638678 1.88991,0.995627 1.94842,0.456459 5.32358,1.95371 6.6016,2.928488 0.9396,0.716676 1.48069,0.444261 1.10104,-0.554302 -0.57028,-1.49995 1.17189,-3.276336 2.89092,-2.94775 1.06726,0.20402 3.72996,2.834984 3.72996,3.685461 0,1.533128 -1.42107,2.944098 -2.65359,2.634747 -0.37019,-0.09292 -0.70982,-0.004 -0.91086,0.238125 -0.26586,0.320331 -0.18974,0.569225 0.44589,1.458039 3.84368,5.37472 4.69966,12.802708 2.17244,18.851778 -2.33296,5.58405 -7.22548,9.85107 -12.98743,11.32689 -2.32253,0.59489 -5.68845,0.7992 -7.77629,0.47199 z m 7.12458,-2.15191 c 7.24462,-1.83502 12.80131,-8.54438 13.24572,-15.9934 0.77193,-12.938603 -12.18721,-22.213624 -24.23681,-17.346561 -7.211127,2.912718 -11.871749,10.872101 -10.781499,18.412641 1.53008,10.58257 11.618609,17.49928 21.772589,14.92732 z m -8.02074,-2.30031 c -5.34654,-1.40412 -9.630758,-5.67944 -11.052689,-11.02966 -0.483616,-1.81965 -0.479478,-5.58811 0.0082,-7.50314 0.682101,-2.678268 1.842434,-4.64653 4.05098,-6.87165 2.411409,-2.429483 4.733139,-3.701203 7.882469,-4.317603 6.45548,-1.263517 13.193,1.959452 16.23225,7.764939 1.35398,2.586324 1.77989,4.338874 1.76055,7.244454 -0.0134,2.01877 -0.15312,2.95698 -0.68066,4.572 -1.63059,4.99181 -5.91267,8.98363 -10.89773,10.15899 -1.99542,0.47046 -5.47552,0.46173 -7.30341,-0.0183 z m 6.93339,-1.75589 c 7.63414,-1.98845 11.94536,-9.86411 9.45719,-17.27626 -1.87425,-5.583286 -6.8152,-9.11251 -12.70758,-9.076817 -2.77347,0.01667 -4.97254,0.647488 -7.13032,2.044938 -7.313462,4.736412 -8.368282,14.697129 -2.202448,20.797809 3.292558,3.25774 8.246728,4.63981 12.583158,3.51033 z m -3.82486,-0.17084 c -0.18724,-0.18722 -0.31453,-1.00094 -0.31453,-2.01065 0,-1.79313 0.3203,-2.38857 1.1943,-2.22027 0.39681,0.0764 0.4567,0.3706 0.4567,2.24348 0,1.96606 -0.0449,2.16194 -0.51097,2.22874 -0.28103,0.0403 -0.6525,-0.0683 -0.8255,-0.2413 z m -5.96603,-1.50328 c -0.632,-0.36809 -0.54179,-0.92612 0.40734,-2.51965 0.86504,-1.45235 1.60638,-1.85365 2.16992,-1.17462 0.24924,0.30033 0.20084,0.59015 -0.24589,1.47275 -0.67386,1.3313 -1.47786,2.49867 -1.71367,2.48814 -0.0953,-0.004 -0.37323,-0.12422 -0.6177,-0.26662 z m 12.34806,0.08 c -0.54517,-0.35269 -1.89701,-2.92135 -1.82032,-3.45877 0.0473,-0.33136 0.29328,-0.56864 0.64074,-0.61804 0.44389,-0.0631 0.75489,0.21828 1.4605,1.3213 0.94475,1.47691 1.09377,2.14305 0.59172,2.6451 -0.35161,0.3516 -0.47559,0.36729 -0.87264,0.11041 z m -17.128233,-4.77993 c -0.479414,-0.57769 -0.07499,-1.08717 1.674315,-2.10933 1.572888,-0.91906 2.202728,-0.87604 2.357988,0.16107 0.0594,0.39654 -0.27721,0.73414 -1.430226,1.43455 -1.675371,1.01775 -2.112185,1.10397 -2.602077,0.51371 z m 20.275483,-0.42979 c -1.60284,-0.89955 -1.9971,-1.53595 -1.35101,-2.18074 0.38641,-0.38563 0.53972,-0.35095 2.08889,0.47281 1.76988,0.94112 2.10507,1.33908 1.687,2.00302 -0.4035,0.64083 -0.85521,0.58587 -2.42488,-0.29509 z m -10.57612,-3.90014 c -0.79318,-0.55554 -1.33035,-1.90897 -1.13847,-2.8684 0.18628,-0.93139 1.19555,-2.00036 2.10106,-2.22536 0.3623,-0.09 2.38384,-1.28786 4.49231,-2.66184 5.7293,-3.73356 6.08842,-3.34486 1.88765,2.04306 -1.53327,1.96657 -2.8602,3.86419 -2.94873,4.21693 -0.0885,0.35272 -0.50015,0.92673 -0.91472,1.27556 -0.89762,0.7553 -2.56442,0.86071 -3.4791,0.22005 z m 2.50046,-1.85341 c 0.14412,-0.26926 0.19473,-0.66497 0.11247,-0.87931 -0.20735,-0.54036 -1.06783,-0.76745 -1.51181,-0.39897 -0.37874,0.31433 -0.50133,1.29673 -0.19948,1.59856 0.35038,0.35039 1.34672,0.15079 1.59882,-0.32028 z m 3.61357,-4.45389 c 0.27814,-0.49178 0.272,-0.49207 -0.45438,-0.0225 -2.45836,1.58853 -2.40711,1.53521 -1.93429,2.01271 0.41311,0.41717 0.47972,0.38962 1.27133,-0.52562 0.45946,-0.53126 0.96226,-1.19023 1.11734,-1.46439 z m -17.309593,4.5747 c -0.168341,-0.20283 -0.266499,-0.5743 -0.218122,-0.8255 0.0764,-0.39674 0.370469,-0.45669 2.239994,-0.45669 1.869525,0 2.16359,0.06 2.239994,0.45669 0.168873,0.87689 -0.426466,1.19431 -2.239994,1.19431 -1.190056,0 -1.809583,-0.11301 -2.021872,-0.36881 z m 21.562193,-0.0335 c -0.24228,-0.29196 -0.26064,-0.51839 -0.0669,-0.8255 0.21234,-0.33665 0.67695,-0.42322 2.27127,-0.42322 1.91934,0 2.00795,0.0257 2.09004,0.60626 0.11811,0.83535 -0.32161,1.03632 -2.27712,1.04085 -1.22967,0.003 -1.77339,-0.10454 -2.01728,-0.39839 z m -18.632488,-5.18289 c -1.36221,-0.79873 -1.750687,-1.27458 -1.5236,-1.866347 0.253904,-0.66167 0.775755,-0.660664 2.049245,0.004 1.699703,0.887067 2.214863,1.422447 2.004993,2.083697 -0.23399,0.73724 -1.011752,0.66921 -2.530638,-0.22135 z m 17.382848,0.38139 c -0.49424,-0.59549 -0.15503,-1.03097 1.55291,-1.993472 1.24109,-0.6994 1.69453,-0.840449 2.06478,-0.642303 0.83418,0.446458 0.42546,1.268355 -1.08037,2.172575 -1.54716,0.92903 -2.0713,1.02473 -2.53732,0.4632 z m -13.04077,-3.749694 c -0.77368,-1.033541 -1.43991,-2.337276 -1.43991,-2.817733 0,-0.369358 0.51684,-0.674766 1.14191,-0.674766 0.27866,0 2.16009,2.95148 2.16009,3.388651 0,0.217487 -0.7822,0.929348 -1.02122,0.929348 -0.12261,0 -0.501,-0.371475 -0.84087,-0.8255 z m 9.73882,0.447808 c -0.40842,-0.492125 -0.20173,-1.245764 0.75437,-2.750794 0.60312,-0.949378 0.90413,-1.205468 1.34357,-1.143 0.35872,0.05096 0.59562,0.286438 0.64622,0.642276 0.12587,0.885084 -1.5802,3.62921 -2.25634,3.62921 -0.0959,0 -0.31541,-0.169968 -0.48782,-0.377692 z m -4.63823,-1.166654 c -0.65745,-0.382931 -0.65202,-3.914722 0.007,-4.267173 0.28614,-0.153141 0.61118,-0.151792 0.889,0.0034 0.81273,0.454819 0.52943,4.576604 -0.31136,4.530117 -0.0768,-0.0042 -0.33972,-0.124222 -0.5842,-0.266621 z m -13.46216,-5.740162 c -0.402037,-0.402034 -0.460547,-0.399547 -0.946491,0.04022 -0.488693,0.442251 -0.493633,0.495644 -0.08743,0.944483 0.420206,0.464344 0.442915,0.463365 0.946491,-0.04022 0.484063,-0.484055 0.489469,-0.542448 0.08743,-0.944483 z m 28.25766,0.584597 c 0,-0.479716 -0.6766,-1.00285 -1.02143,-0.789728 -0.19289,0.119195 -0.14396,0.326231 0.15525,0.656854 0.51453,0.568563 0.86618,0.622486 0.86618,0.132874 z M 34.313828,38.420041 c 1.411603,-1.150699 1.712894,-1.736778 1.206519,-2.346907 -0.524304,-0.631745 -1.396429,-0.409204 -2.621111,0.668788 -1.238372,1.090056 -1.442236,1.710637 -0.779618,2.373286 0.566824,0.566816 0.696542,0.525727 2.19421,-0.695167 z m 33.433578,-0.03535 c 0.0521,-0.26289 -0.39848,-0.880322 -1.143,-1.56628 -0.97182,-0.895456 -1.38836,-1.117151 -1.99093,-1.059736 -1.56148,0.148881 -0.86672,1.949476 1.26298,3.273319 0.64876,0.403278 0.82743,0.42127 1.27,0.127979 0.28326,-0.187722 0.55369,-0.536628 0.60095,-0.775282 z m -16.21493,-4.471643 c 0,-0.469133 -0.1331,-0.513583 -1.33112,-0.4445 -1.02878,0.05932 -1.35032,0.177747 -1.41563,0.521282 -0.0723,0.380259 0.12005,0.4445 1.33112,0.4445 1.25831,0 1.41563,-0.05794 1.41563,-0.521282 z m 1.25156,-2.43399 c 0.71254,-0.905841 0.67423,-2.000022 -0.097,-2.771293 -0.5362,-0.536194 -0.85846,-0.623443 -2.3027,-0.623443 -1.62198,0 -2.58559,0.279654 -2.97545,0.863523 -0.10264,0.15372 -0.18836,0.758775 -0.1905,1.344575 -0.005,1.502461 0.58148,1.855902 3.08219,1.855902 1.8117,0 1.99615,-0.04971 2.48348,-0.669264 z"
       style="fill:#3f72af;stroke-width:0.254;fill-opacity:1"
       id="path289" />
  </g>
</svg>
