<?xml version="1.0" encoding="UTF-8" standalone="no"?>
<!-- Created with Inkscape (http://www.inkscape.org/) -->

<svg
   width="100mm"
   height="100mm"
   viewBox="0 0 100 100"
   version="1.1"
   id="svg3174"
   inkscape:version="1.2.1 (9c6d41e410, 2022-07-14)"
   sodipodi:docname="2.svg"
   xmlns:inkscape="http://www.inkscape.org/namespaces/inkscape"
   xmlns:sodipodi="http://sodipodi.sourceforge.net/DTD/sodipodi-0.dtd"
   xmlns="http://www.w3.org/2000/svg"
   xmlns:svg="http://www.w3.org/2000/svg">
  <sodipodi:namedview
     id="namedview3176"
     pagecolor="#ffffff"
     bordercolor="#000000"
     borderopacity="0.25"
     inkscape:showpageshadow="2"
     inkscape:pageopacity="0.0"
     inkscape:pagecheckerboard="0"
     inkscape:deskcolor="#d1d1d1"
     inkscape:document-units="mm"
     showgrid="false"
     inkscape:zoom="0.2102413"
     inkscape:cx="-537.47765"
     inkscape:cy="561.25985"
     inkscape:window-width="1280"
     inkscape:window-height="961"
     inkscape:window-x="-8"
     inkscape:window-y="-8"
     inkscape:window-maximized="1"
     inkscape:current-layer="layer1" />
  <defs
     id="defs3171" />
  <g
     inkscape:label="Слой 1"
     inkscape:groupmode="layer"
     id="layer1">
    <path
       d="m 34.231372,68.839248 c -2.328571,-0.84451 -3.719541,-2.9017 -3.734279,-5.52286 -0.008,-1.42596 0.103299,-1.8532 0.75932,-2.91429 1.981568,-3.20511 6.186593,-3.8424 8.892953,-1.34776 2.107083,1.94224 2.513203,5.022 0.987626,7.48957 -1.362006,2.20299 -4.387443,3.20861 -6.90562,2.29534 z m 4.002299,-1.97689 c 1.769261,-0.99438 2.567313,-3.53409 1.66115,-5.28641 -1.350854,-2.61227 -4.575657,-3.00143 -6.570874,-0.79296 -1.137666,1.25926 -1.388809,2.45502 -0.825445,3.93016 0.922166,2.41466 3.526441,3.39059 5.735169,2.14921 z m -3.104089,-1.38199 c -0.862023,-0.46781 -1.212884,-1.10359 -1.212884,-2.19785 0,-1.10569 0.556781,-1.87109 1.615202,-2.2204 1.053274,-0.34761 1.922613,-0.057 2.669442,0.89247 0.91603,1.16454 0.546907,2.8811 -0.765482,3.55976 -0.874866,0.45242 -1.424924,0.44431 -2.306278,-0.034 z m 28.632113,3.22406 c -2.874976,-1.30936 -4.195641,-4.79548 -2.899656,-7.65413 0.696415,-1.53612 1.386245,-2.23844 2.899656,-2.95213 2.313927,-1.0912 4.645385,-0.67154 6.48403,1.1671 2.982254,2.98226 2.03059,7.90463 -1.84037,9.51916 -1.263021,0.52679 -3.39185,0.49011 -4.64366,-0.08 z m 4.638725,-1.98285 c 2.34777,-1.75286 2.418633,-4.87556 0.149908,-6.606 -2.650511,-2.02164 -6.638782,0.18986 -6.361576,3.52752 0.116904,1.40755 1.100027,2.86091 2.304241,3.40638 1.046257,0.47392 3.059792,0.30495 3.907427,-0.3279 z m -2.987725,-1.01523 c -1.412184,-0.55117 -2.055656,-2.11234 -1.396241,-3.38752 1.182407,-2.28652 4.559697,-1.52229 4.559697,1.03179 0,1.58086 -1.770591,2.89936 -3.163456,2.35573 z m -40.580714,-4.19036 c -0.216834,-0.21684 -0.313283,-1.34882 -0.313283,-3.67688 v -3.3636 l -1.0795,-0.0781 -1.0795,-0.0781 -0.06668,-11.42999 c -0.06137,-10.51993 -0.03222,-11.45528 0.366048,-11.7475 0.336542,-0.24693 4.426304,-0.3175 18.400032,-0.3175 15.995248,0 18.011119,0.0438 18.366452,0.39914 0.309255,0.30926 0.399142,0.96707 0.399142,2.921 v 2.52186 h 3.788413 3.788415 l 1.039992,1.18149 c 0.571995,0.64982 1.563854,1.99285 2.20413,2.9845 0.640273,0.99165 1.359525,2.08022 1.598332,2.41902 0.269214,0.38195 1.39428,1.01623 2.960958,1.6693 l 2.52676,1.05328 v 7.8557 7.8557 l -2.594769,0.0723 -2.594766,0.0723 -0.620048,-1.21529 c -1.154205,-2.26223 -3.27011,-3.62187 -5.620417,-3.61156 -2.512499,0.011 -4.480753,1.18619 -5.748242,3.43206 l -0.777251,1.37721 -8.421251,-0.004 c -4.63169,-0.002 -8.537879,-0.0879 -8.680423,-0.1905 -0.142544,-0.10264 -0.390856,-0.48687 -0.55181,-0.85385 -0.515413,-1.17517 -1.942229,-2.57099 -3.251171,-3.18053 -3.101488,-1.4443 -6.627931,-0.10296 -8.44655,3.21276 l -0.487601,0.889 -2.396066,0.072 c -1.646407,0.0495 -2.494084,-0.026 -2.709349,-0.2413 z m 4.595899,-2.61938 c 3.089913,-4.89094 10.322296,-4.9274 13.648381,-0.0688 l 0.825942,1.2065 h 7.395487 7.395483 l 0.492704,-0.91489 c 0.270989,-0.5032 0.994542,-1.35663 1.607899,-1.89653 3.752525,-3.3031 9.707714,-2.41545 12.399222,1.84818 0.556501,0.88155 0.704734,0.96324 1.747882,0.96324 h 1.139815 v -2.79524 -2.79526 l -24.828497,0.0648 -24.8285,0.0647 -0.07209,2.7305 -0.07209,2.7305 1.215091,-5.2e-4 c 1.16264,-5.3e-4 1.246098,-0.0495 1.933276,-1.13725 z m 28.364815,-6.86331 v -0.635 h -16.890997 -16.891 v 0.635 0.635 h 16.891 16.890997 z m 18.233093,-2.07984 -0.07209,-2.71485 -2.388934,-1.03738 c -1.31391,-0.57056 -2.51406,-1.25201 -2.667,-1.51432 -0.919146,-1.57652 -3.683031,-5.65928 -4.016208,-5.93267 -0.287893,-0.23624 -1.3086,-0.30565 -3.735059,-0.254 l -3.33891,0.0711 -0.05494,7.0485 -0.05495,7.04851 8.200094,-1e-5 8.200091,-10e-6 z m -13.915093,-1.85715 c 0,-0.44643 0.169333,-0.508 1.397,-0.508 1.227667,0 1.397,0.0616 1.397,0.508 0,0.44642 -0.169333,0.508 -1.397,0.508 -1.227667,0 -1.397,-0.0616 -1.397,-0.508 z m -1.27,-5.334 v -2.794 h 2.363205 2.363203 l 1.289169,1.7145 c 0.709041,0.94297 1.59013,2.20027 1.95798,2.794 l 0.668817,1.0795 h -4.321188 -4.321186 z m -34.797997,0 v -7.366 h -1.016 -1.016 v 7.366 7.366 h 1.016 1.016 z m 3.556,0 v -7.366 h -1.143 -1.143 v 7.366 7.366 h 1.143 1.143 z m 3.556,0 v -7.366 h -1.143 -1.143 v 7.366 7.366 h 1.143 1.143 z m 3.556,0 v -7.366 h -1.143 -1.143 v 7.366 7.366 h 1.143 1.143 z m 3.556,0 v -7.366 h -1.143 -1.143 v 7.366 7.366 h 1.143 1.143 z m 3.556,0 v -7.366 h -1.143 -1.143 v 7.366 7.366 h 1.143 1.143 z m 3.556,-0.0139 v -7.37992 l -1.2065,0.0774 -1.2065,0.0774 -0.06769,6.98139 c -0.03723,3.83977 -0.01225,7.12589 0.05553,7.3025 0.07423,0.19344 0.580837,0.32111 1.274194,0.32111 h 1.150969 z m 3.496418,-0.0637 0.06742,-7.31658 -1.210419,0.0776 -1.210418,0.0776 -0.06769,6.9814 c -0.03723,3.83976 -0.0097,7.13251 0.06118,7.31721 0.08601,0.22414 0.488638,0.30981 1.210691,0.25761 l 1.081823,-0.0782 z m 3.555976,0.0141 0.06739,-7.3025 h -1.27389 -1.273894 v 7.37991 7.37992 l 1.2065,-0.0774 1.206497,-0.0774 z m 3.361603,0.0635 v -7.366 h -1.143 -1.143 v 7.366 7.366 h 1.143 1.143 z m 0,-9.39981 v -0.76382 l -16.827497,0.0653 -16.8275,0.0653 -0.08037,0.6985 -0.08037,0.6985 H 40.88483 57.792697 Z"
       style="fill:#3f72af;stroke-width:0.254;fill-opacity:1"
       id="path3549" />
  </g>
</svg>
