<?xml version="1.0" encoding="UTF-8" standalone="no"?>
<!-- Created with Inkscape (http://www.inkscape.org/) -->

<svg
   width="100mm"
   height="100mm"
   viewBox="0 0 100 100"
   version="1.1"
   id="svg6593"
   inkscape:version="1.2.1 (9c6d41e410, 2022-07-14)"
   sodipodi:docname="3.svg"
   xmlns:inkscape="http://www.inkscape.org/namespaces/inkscape"
   xmlns:sodipodi="http://sodipodi.sourceforge.net/DTD/sodipodi-0.dtd"
   xmlns="http://www.w3.org/2000/svg"
   xmlns:svg="http://www.w3.org/2000/svg">
  <sodipodi:namedview
     id="namedview6595"
     pagecolor="#ffffff"
     bordercolor="#000000"
     borderopacity="0.25"
     inkscape:showpageshadow="2"
     inkscape:pageopacity="0.0"
     inkscape:pagecheckerboard="0"
     inkscape:deskcolor="#d1d1d1"
     inkscape:document-units="mm"
     showgrid="false"
     inkscape:zoom="0.2102413"
     inkscape:cx="-537.47765"
     inkscape:cy="561.25985"
     inkscape:window-width="1280"
     inkscape:window-height="961"
     inkscape:window-x="-8"
     inkscape:window-y="-8"
     inkscape:window-maximized="1"
     inkscape:current-layer="layer1" />
  <defs
     id="defs6590" />
  <g
     inkscape:label="Слой 1"
     inkscape:groupmode="layer"
     id="layer1">
    <path
       d="m 45.639816,72.170687 c -0.90805,-0.2022 -2.73685,-0.90407 -4.064,-1.55972 -2.03257,-1.00414 -2.77501,-1.55591 -4.70918,-3.49973 -2.60615,-2.61916 -4.01726,-5.00598 -4.97684,-8.41802 -1.03845,-3.69247 -0.61078,-9.33857 0.93357,-12.32502 0.3618,-0.69965 0.33461,-0.82397 -0.56443,-2.57984 -0.7988,-1.56012 -0.94652,-2.10222 -0.95733,-3.51337 -0.0104,-1.3597 0.10053,-1.83418 0.59931,-2.56291 0.98531,-1.43958 2.14268,-2.08382 3.9503,-2.19892 1.77953,-0.11331 2.83658,0.28916 3.98318,1.51661 l 0.67793,0.72572 1.34346,-0.67478 c 2.31238,-1.16145 4.24933,-1.63998 7.21303,-1.78201 1.96408,-0.0941 3.32213,-0.0217 4.572,0.24389 0.9779,0.20779 1.80977,0.34871 1.8486,0.31314 0.0388,-0.0356 -0.0469,-0.37372 -0.1905,-0.75143 -0.40126,-1.05541 -0.30064,-2.95618 0.21612,-4.0827 1.33307,-2.906 4.84241,-4.26988 7.84543,-3.04905 1.98511,0.80701 3.61535,3.252 3.61535,5.42222 0,1.06331 -1.06179,3.81886 -2.29717,5.9616 l -1.01016,1.7521 0.74582,0.84945 c 1.12444,1.28066 2.71694,4.11054 3.29976,5.86365 3.29278,9.90478 -1.93023,20.47732 -11.78969,23.86497 -1.72818,0.59379 -2.5199,0.70881 -5.33156,0.77456 -2.217,0.0518 -3.8445,-0.0436 -4.953,-0.29041 z m 0.26305,-3.35451 c -0.86841,-0.94772 -2.13794,-2.58115 -2.82118,-3.62985 -2.10612,-3.23269 -1.69869,-2.96572 -3.31691,-2.17335 -0.77447,0.37922 -1.72488,0.94206 -2.11202,1.25076 l -0.7039,0.56126 1.55414,1.43885 c 1.92865,1.7856 4.39233,3.18348 6.88215,3.90492 1.04812,0.3037 1.94864,0.5113 2.00115,0.46135 0.0525,-0.05 -0.61503,-0.86623 -1.48343,-1.81394 z m 8.89835,1.29695 c 2.33418,-0.68603 4.83204,-2.16291 6.77397,-4.00516 1.0111,-0.95921 1.77454,-1.84729 1.69652,-1.97352 -0.15336,-0.24815 -1.945,-1.19276 -3.45955,-1.82399 l -0.94065,-0.39204 -0.9114,1.62972 c -0.94639,1.69231 -3.37227,4.86541 -4.53757,5.93523 -1.21213,1.11283 -0.8413,1.28222 1.37868,0.62976 z m -5.8594,-5.19809 v -4.33357 l -1.2065,0.1563 c -0.66358,0.086 -1.98121,0.33466 -2.92808,0.55266 l -1.72159,0.39636 0.68581,1.17741 c 1.15581,1.9843 4.64789,6.3844 5.0669,6.3844 0.0569,0 0.10346,-1.9501 0.10346,-4.33356 z m 6.50212,-0.90024 c 1.49519,-2.24714 1.59389,-2.5388 0.92738,-2.74045 -0.77158,-0.23345 -3.71215,-0.65783 -4.572,-0.65983 l -0.8255,-0.002 0.0112,4.3815 0.0112,4.3815 1.53787,-1.6495 c 0.84584,-0.90723 2.15522,-2.57731 2.90975,-3.7113 z m -18.28692,-1.64223 c 0.62356,-0.42901 1.63228,-1.00056 2.24161,-1.27009 l 1.10786,-0.49006 -0.49128,-1.57849 c -0.2702,-0.86817 -0.57392,-2.154 -0.67493,-2.85741 l -0.18365,-1.27892 -2.9814,-0.0716 -2.98141,-0.0716 v 0.8437 c 0,0.46403 0.17506,1.52493 0.38903,2.35755 0.39833,1.5501 2.0005,5.19687 2.28319,5.19687 0.0865,0 0.66743,-0.35101 1.29098,-0.78003 z m 28.51486,-2.22768 c 0.71431,-1.85997 1.36379,-4.97578 1.0935,-5.24605 -0.0705,-0.0705 -1.42145,-0.12824 -3.00206,-0.12824 h -2.87382 l -0.13168,0.6985 c -0.0724,0.38418 -0.3482,1.6129 -0.61285,2.7305 -0.31138,1.31495 -0.38863,2.06602 -0.21894,2.12841 0.14423,0.053 1.18936,0.5695 2.32251,1.14773 1.30383,0.66532 2.17336,0.97112 2.36827,0.83288 0.16939,-0.12014 0.64417,-1.09382 1.05507,-2.16373 z m -21.25432,-0.65184 c 0.88179,-0.19665 2.26049,-0.43348 3.06376,-0.52628 l 1.4605,-0.16872 v -2.01373 -2.01372 h -3.97152 -3.97153 l 0.16291,1.18858 c 0.24216,1.76669 0.97039,3.89142 1.33377,3.89142 0.17536,0 1.04032,-0.1609 1.92211,-0.35755 z m 13.83803,-1.02439 c 0.18985,-0.55052 0.4165,-1.60779 0.50367,-2.3495 l 0.1585,-1.34856 h -3.97197 -3.97197 v 2.00196 2.00196 l 2.0955,0.17533 c 1.15252,0.0964 2.49555,0.27172 2.9845,0.38954 1.48073,0.3568 1.82548,0.22046 2.20177,-0.87073 z m -18.67915,-7.88906 c 0.25677,-1.2573 0.46877,-2.36879 0.47111,-2.46998 0.005,-0.19408 -1.35076,-0.95934 -1.69762,-0.95856 -0.11171,2.5e-4 -0.52793,0.5146 -0.92493,1.143 -0.88181,1.39578 -1.40205,1.44153 -2.38989,0.21016 l -0.74798,-0.93237 -0.42813,1.24987 c -0.23548,0.68744 -0.49815,1.91088 -0.58372,2.71876 l -0.15558,1.46889 2.99495,-0.0719 2.99495,-0.0719 z m 9.36538,0.90456 v -1.50843 l -1.2065,-0.15924 c -1.28983,-0.17023 -4.42011,-0.77792 -5.28849,-1.02666 -0.44016,-0.12609 -0.57491,0.0126 -0.82585,0.85022 -0.16493,0.55048 -0.3724,1.53001 -0.46104,2.17672 l -0.16117,1.17583 h 3.97153 3.97152 z m 9.906,0.85892 c 0,-0.75054 -0.50283,-2.95068 -0.73304,-3.20743 -0.0858,-0.0957 -0.80216,-0.0228 -1.59197,0.1619 -0.7898,0.18471 -2.36143,0.41776 -3.4925,0.51788 l -2.05649,0.18204 v 1.49757 1.49756 h 3.937 3.937 z m 7.91962,-0.36648 c -0.17186,-1.87759 -1.54671,-6.096 -1.9868,-6.096 -0.0767,0 -0.469,0.23469 -0.87183,0.52154 -0.40284,0.28684 -1.46825,0.85517 -2.36758,1.26294 l -1.63515,0.74142 0.35685,1.34055 c 0.19627,0.7373 0.35822,1.69298 0.35987,2.12372 0.002,0.43074 0.0827,0.8628 0.17998,0.96013 0.0973,0.0973 1.4975,0.14495 3.1115,0.10583 l 2.93454,-0.0711 z m -17.82562,-8.68027 v -4.87028 l -0.65696,0.61578 c -1.827,1.71246 -5.43904,6.86089 -5.43904,7.75253 0,0.30062 2.00209,0.79799 4.49769,1.11735 0.80922,0.10356 1.49988,0.20327 1.53481,0.22159 0.0349,0.0183 0.0635,-2.15832 0.0635,-4.83697 z m 6.78185,4.33478 c 0.95997,-0.16717 1.60015,-0.4054 1.60015,-0.59546 0,-0.97681 -5.57995,-8.52016 -6.30338,-8.52133 -0.0955,-1.5e-4 -0.14016,2.18732 -0.0993,4.86105 l 0.0744,4.86133 1.56399,-0.16347 c 0.8602,-0.0899 2.28406,-0.28886 3.16414,-0.44212 z m -17.66579,-4.16351 c 1.55271,-3.08688 1.57216,-4.05586 0.10834,-5.39734 -1.25501,-1.15013 -2.78816,-1.16682 -4.06669,-0.0443 -1.66644,1.46316 -1.48943,2.80877 0.92444,7.02767 1.25891,2.20029 1.08315,2.29218 3.03391,-1.58607 z m -2.48299,-1.06412 c -1.7025,-0.33404 -2.355,-2.90108 -1.02763,-4.04283 1.01328,-0.87159 2.28488,-0.8188 3.2381,0.13442 1.21709,1.21708 0.78397,3.24573 -0.81173,3.80199 -0.44419,0.15485 -0.81914,0.26598 -0.83321,0.24695 -0.0141,-0.019 -0.26857,-0.0823 -0.56553,-0.14053 z m 1.42893,-1.85688 c 0.19316,-0.36093 0.19316,-0.65507 0,-1.016 -0.34366,-0.64213 -1.06147,-0.65142 -1.63188,-0.0211 -0.3515,0.38841 -0.38334,0.59388 -0.15743,1.016 0.36626,0.68436 1.42765,0.69689 1.78931,0.0211 z m 24.38642,5.20078 c 0.62998,-0.31649 1.42433,-0.80128 1.76521,-1.0773 0.60241,-0.48781 0.60751,-0.52059 0.18222,-1.16968 -0.24066,-0.36729 -0.52065,-0.66638 -0.62221,-0.66465 -0.10155,0.002 -0.44287,0.40178 -0.75848,0.889 -0.98117,1.51468 -1.24011,1.32704 -3.68478,-2.67015 -1.73466,-2.83626 -2.08452,-3.10739 -4.75541,-3.68525 l -0.88603,-0.1917 0.9599,1.11298 c 1.93202,2.24012 3.90013,4.98909 4.75841,6.64633 0.97668,1.88586 0.92689,1.87258 3.04117,0.81042 z m -19.61181,-1.11867 c 1.05542,-1.91981 2.8415,-4.34711 4.45221,-6.05061 0.72387,-0.76557 1.10254,-1.3335 0.88912,-1.3335 -0.70401,0 -3.1339,0.82061 -4.55785,1.53926 -1.39421,0.70364 -1.42959,0.74808 -1.54416,1.93994 -0.0645,0.67089 -0.48976,2.00027 -0.94505,2.95418 -0.45529,0.9539 -0.78912,1.76572 -0.74184,1.80404 0.28837,0.23371 1.14224,0.63833 1.36083,0.64486 0.14238,0.004 0.63141,-0.66993 1.08674,-1.49817 z m 21.62187,-6.88833 c 1.85386,-3.57486 2.04541,-4.51404 1.2404,-6.08173 -1.49998,-2.92107 -5.15741,-3.13946 -7.16653,-0.42792 -0.9381,1.26607 -0.73954,2.98049 0.66982,5.78373 0.66064,1.31403 1.55928,2.95231 1.99697,3.64063 l 0.7958,1.2515 0.47122,-0.6165 c 0.25916,-0.33907 1.15571,-1.93643 1.99232,-3.54971 z m -3.40948,-2.0059 c -1.28309,-0.52516 -2.06626,-2.18462 -1.64024,-3.47549 0.55599,-1.68466 2.38325,-2.35497 4.05832,-1.48876 0.93253,0.48223 1.26492,1.09637 1.26492,2.33716 0,1.20317 -0.56361,2.04824 -1.67604,2.51304 -0.94898,0.39651 -1.27199,0.41487 -2.00696,0.11405 z m 2.15006,-1.77518 c 0.55837,-1.04333 -0.0377,-2.3027 -1.08993,-2.3027 -1.1476,0 -1.92425,1.70129 -1.13633,2.4892 0.49634,0.49635 1.92486,0.37667 2.22626,-0.1865 z"
       style="fill:#3f72af;stroke-width:0.254;fill-opacity:1"
       id="path6605" />
  </g>
</svg>
