<?xml version="1.0" encoding="UTF-8" standalone="no"?>
<!-- Created with Inkscape (http://www.inkscape.org/) -->

<svg
   width="100mm"
   height="100mm"
   viewBox="0 0 100 100"
   version="1.1"
   id="svg8212"
   inkscape:version="1.2.1 (9c6d41e410, 2022-07-14)"
   sodipodi:docname="4.svg"
   xmlns:inkscape="http://www.inkscape.org/namespaces/inkscape"
   xmlns:sodipodi="http://sodipodi.sourceforge.net/DTD/sodipodi-0.dtd"
   xmlns="http://www.w3.org/2000/svg"
   xmlns:svg="http://www.w3.org/2000/svg">
  <sodipodi:namedview
     id="namedview8214"
     pagecolor="#ffffff"
     bordercolor="#000000"
     borderopacity="0.25"
     inkscape:showpageshadow="2"
     inkscape:pageopacity="0.0"
     inkscape:pagecheckerboard="0"
     inkscape:deskcolor="#d1d1d1"
     inkscape:document-units="mm"
     showgrid="false"
     inkscape:zoom="0.2102413"
     inkscape:cx="-537.47765"
     inkscape:cy="561.25985"
     inkscape:window-width="1280"
     inkscape:window-height="961"
     inkscape:window-x="-8"
     inkscape:window-y="-8"
     inkscape:window-maximized="1"
     inkscape:current-layer="layer1" />
  <defs
     id="defs8209" />
  <g
     inkscape:label="Слой 1"
     inkscape:groupmode="layer"
     id="layer1">
    <path
       d="m 34.156046,72.929018 c -0.3687,-0.29002 -0.79313,-0.94979 -0.94318,-1.46617 -0.18654,-0.64197 -0.24872,-6.78899 -0.19661,-19.43829 l 0.0762,-18.49941 0.8295,-0.74109 c 0.78603,-0.70223 0.94914,-0.74108 3.1115,-0.74108 1.88235,0 2.28199,-0.0683 2.28199,-0.38994 0,-0.68091 0.76846,-1.59462 1.57867,-1.87706 0.43073,-0.15015 1.42331,-0.27331 2.20574,-0.27369 1.37614,-7.9e-4 1.43918,-0.0311 1.93059,-0.93192 0.9764,-1.78987 1.50896,-1.988394 5.334,-1.988394 3.82505,0 4.3576,0.198524 5.334,1.988394 0.47539,0.87146 0.58597,0.93128 1.72266,0.93192 1.79501,0.001 2.86073,0.5339 3.25648,1.62833 l 0.32991,0.91236 h 2.25452 c 2.15316,0 2.28789,0.0334 2.99697,0.74246 l 0.74246,0.74246 v 19.18237 19.18237 l -0.61291,0.71267 -0.6129,0.71266 -15.47462,0.0692 c -15.33119,0.0685 -15.48084,0.0643 -16.14498,-0.45813 z m 30.94041,-20.18504 v -18.796 l -2.032,-0.0224 c -1.28559,-0.0142 -1.52167,0.0147 -0.6427,0.0787 0.76412,0.0556 1.53564,0.22258 1.7145,0.37102 0.25842,0.21447 0.3252,3.80683 0.3252,17.49265 0,15.31838 -0.0441,17.26689 -0.39914,17.6219 -0.35281,0.35282 -1.9615,0.39915 -13.8597,0.39915 -8.79296,0 -13.63092,-0.0912 -13.95185,-0.26294 -0.47845,-0.25605 -0.49131,-0.72129 -0.49131,-17.77515 v -17.51223 l 0.5715,-0.12835 c 0.31433,-0.0706 1.08585,-0.16711 1.7145,-0.21446 0.68877,-0.0519 0.36426,-0.10375 -0.81656,-0.13049 -1.70372,-0.0386 -1.99389,0.0198 -2.2225,0.44693 -0.36486,0.68174 -0.36381,36.1836 10e-4,36.86542 0.25742,0.48099 0.63676,0.49169 15.1765,0.4278 l 14.9125,-0.0655 z m -2.54,-0.762 v -16.002 l -0.69955,-0.0805 c -0.53151,-0.0611 -0.90479,0.13715 -1.55399,0.8255 l -0.85444,0.90598 h -9.33802 -9.33801 l -0.83844,-0.889 c -0.6041,-0.64053 -1.05617,-0.889 -1.61749,-0.889 h -0.77906 v 15.95966 c 0,8.77782 0.0773,16.03694 0.17173,16.13139 0.0944,0.0944 5.72372,0.14207 12.5095,0.10583 l 12.33777,-0.0659 z m -7.3313,11.90343 c -0.86846,-0.9366 -1.27212,-1.76601 -1.09021,-2.24006 0.26661,-0.69477 0.91799,-0.74482 1.58146,-0.12151 l 0.62711,0.58913 1.21019,-1.192 c 0.66561,-0.6556 1.38344,-1.192 1.59518,-1.192 0.42544,0 0.99457,0.48061 0.99457,0.83988 0,0.36512 -3.60603,3.98612 -3.96964,3.98612 -0.18029,0 -0.60719,-0.3013 -0.94866,-0.66956 z m -15.99436,-1.02377 c -0.40824,-0.40823 -0.15347,-1.34887 0.40216,-1.48489 0.31433,-0.0769 3.30233,-0.10771 6.64,-0.0683 5.25815,0.062 6.103,0.12631 6.32692,0.48154 0.14214,0.22549 0.18668,0.59696 0.099,0.8255 -0.14194,0.36988 -0.88113,0.41552 -6.72909,0.41552 -3.6133,0 -6.64584,-0.0762 -6.73897,-0.16933 z m 15.62172,-6.53969 c -0.93492,-1.30185 -1.0028,-1.80327 -0.29536,-2.18188 0.41629,-0.22279 0.62184,-0.16065 1.12155,0.33906 l 0.61185,0.61185 1.2184,-1.237 c 1.30637,-1.32631 1.95227,-1.52916 2.37196,-0.74496 0.22318,0.417 0.005,0.78506 -1.43209,2.413 -2.02899,2.29888 -2.45224,2.39302 -3.59631,0.79993 z m -15.52693,-0.26377 c -0.16834,-0.20284 -0.2665,-0.57432 -0.21812,-0.8255 0.082,-0.42589 0.54165,-0.4567 6.81199,-0.4567 6.27035,0 6.72998,0.0308 6.812,0.4567 0.2173,1.12836 -0.1588,1.1943 -6.812,1.1943 -5.18682,0 -6.34139,-0.0646 -6.59387,-0.3688 z m 15.84025,-6.4068 c -0.91287,-0.99662 -1.29028,-1.88477 -1.0003,-2.35397 0.2863,-0.46325 1.32794,-0.29255 1.70804,0.2799 0.35927,0.54108 0.38027,0.53101 1.58974,-0.762 1.288,-1.37698 1.98758,-1.62178 2.40513,-0.84161 0.30203,0.56436 -0.0449,1.14889 -1.73071,2.91587 -1.77074,1.85602 -1.93182,1.89731 -2.9719,0.76181 z m -16.00683,-0.44857 c -0.0773,-0.20139 -0.1007,-0.57286 -0.0521,-0.8255 0.0826,-0.429 0.52252,-0.45933 6.6613,-0.45933 5.85773,0 6.60188,0.046 6.83979,0.42321 0.19373,0.30711 0.17537,0.53356 -0.0669,0.8255 -0.2886,0.34773 -1.20903,0.40229 -6.78775,0.40229 -5.38623,0 -6.47711,-0.0606 -6.59438,-0.36617 z m 0.19773,-5.95295 c -0.18685,-0.11843 -0.30115,-0.48816 -0.254,-0.82161 l 0.0857,-0.60627 10.541,-0.0668 c 9.5533,-0.0606 10.56983,-0.0275 10.84866,0.35259 0.21418,0.29199 0.23076,0.56311 0.0546,0.89233 -0.24052,0.44943 -0.76662,0.47272 -10.59465,0.46903 -5.68786,-0.002 -10.49444,-0.10079 -10.68129,-0.21923 z m 19.64372,-9.55588 v -2.032 l -2.11108,-0.13723 c -2.22356,-0.14454 -2.57658,-0.34425 -2.58403,-1.46182 -0.002,-0.32067 -0.28444,-0.8636 -0.62734,-1.2065 -0.50868,-0.50868 -0.87107,-0.62158 -1.9685,-0.61328 -1.33427,0.0101 -1.33947,0.0132 -0.64974,0.38743 0.76274,0.41386 1.46369,1.56149 1.46369,2.3964 0,0.74536 -0.67315,1.96658 -1.25593,2.27847 -0.87485,0.46821 -2.20968,0.30478 -3.00983,-0.3685 -1.42541,-1.19941 -1.23765,-3.00051 0.42983,-4.12299 l 0.86306,-0.58098 h -0.93811 c -1.09618,0 -2.18276,0.90839 -2.1889,1.82995 -0.008,1.15447 -0.34629,1.32936 -2.84181,1.46793 l -2.36131,0.13112 -0.076,1.7528 c -0.0418,0.96404 -0.0162,1.9085 0.0568,2.09879 0.10922,0.28462 1.6999,0.33415 8.96598,0.27921 l 8.8332,-0.0668 z m -8.53571,-2.25381 c 0.39278,-0.47328 0.0843,-1.17519 -0.51643,-1.17519 -0.54563,0 -0.85791,0.5621 -0.635,1.143 0.18275,0.47625 0.76928,0.49265 1.15143,0.0322 z"
       style="fill:#3f72af;stroke-width:0.254;fill-opacity:1"
       id="path8207" />
  </g>
</svg>
